<?xml version="1.0" encoding="UTF-8"?>
<svg width="32px" height="28px" viewBox="0 0 32 28" version="1.1" xmlns="http://www.w3.org/2000/svg" xmlns:xlink="http://www.w3.org/1999/xlink">
    <title>animation</title>
    <g id="页面-1" stroke="none" stroke-width="1" fill="none" fill-rule="evenodd">
        <g id="animation" fill="#DDDDDD" fill-rule="nonzero">
            <path d="M11.9613656,3 C12.2852464,3 12.6170752,3.24649259 12.9528779,3.72233047 L12.9667869,3.75448168 L12.9787089,3.77805924 L12.9926179,3.79949337 C13.6980024,4.96551051 14.9200065,7.04462198 15.595586,8.13776306 C15.9313887,8.7143414 16.4301254,9.13016367 17.0381469,9.29520655 L20.9783651,10.4933749 L21.0280401,10.5083788 L21.0399621,10.5083788 C21.5665167,10.7398675 21.8764884,11.0185113 21.9678904,11.3400234 C22.0612793,11.7022603 21.9539814,12.1330865 21.6062566,12.6625097 L18.7191477,16.8850351 C18.3644645,17.4019522 18.1899887,18.0371625 18.2263721,18.6790725 L18.4509029,23.4331644 L18.4509029,23.4460249 C18.4230849,24.1169135 18.291943,24.5606001 18.0395942,24.7792284 C17.9034107,24.8924808 17.7345072,24.9501773 17.5627146,24.9421278 C17.3838847,24.9421278 17.1752498,24.8992595 16.926875,24.8092362 L12.5435562,23.0173422 C12.2779514,22.9041657 11.9945812,22.8473972 11.7090168,22.8501559 C11.3724894,22.8508892 11.0392372,22.9214765 10.7274395,23.058067 L6.93624628,24.751364 C6.51698959,24.9014029 6.2050308,25 5.95665597,25 C5.78180011,25 5.66456718,24.9507015 5.57713926,24.8349571 C5.41817937,24.6120421 5.35062143,24.1533515 5.40625738,23.4481684 L5.53541229,18.0296181 C5.56899197,17.3805335 5.37778894,16.7411448 4.99892268,16.2355807 C4.61145796,15.7383087 4.16438329,15.0717069 3.87626848,14.6858924 C3.39541482,14.025721 2.91058718,13.3934139 2.45357753,12.7332424 L2.45357753,12.7182385 L2.39595456,12.617498 C2.04226883,11.985191 1.9250359,11.5200702 2.04624281,11.1471161 C2.15552772,10.8577553 2.45556452,10.591972 2.95628815,10.4183554 L7.44889191,8.90296181 C8.02313448,8.69290724 8.50994914,8.28137178 8.84773888,7.70693687 L11.0354243,3.75019484 C11.3414221,3.24863599 11.6394718,3 11.9613656,3 Z M11.9986679,1 C11.3063032,1 10.3593925,1.32283334 9.56317303,2.65533334 L7.2966966,6.6745 C7.17827294,6.8448737 7.01540448,6.97446434 6.82833219,7.04716666 L2.20985191,8.57033334 C1.13057741,8.93433334 0.409703507,9.606 0.140903091,10.5225 C-0.15437011,11.4 0.0146483317,12.4421667 0.645922083,13.5666667 C0.673880898,13.6480841 0.719186514,13.7215033 0.778285943,13.7811667 C1.64985101,15.0031667 2.55399794,16.1926667 3.42556299,17.4146667 C3.5049813,17.6486667 3.56403595,17.8631667 3.6414179,18.095 L3.51312678,23.4293333 C3.43981757,24.6296667 3.63938154,25.5591667 4.13421869,26.1766667 C4.5781467,26.701 5.17683859,27 5.87734883,27 C6.3294223,27 6.84665951,26.8786667 7.42091497,26.571 L11.3225941,24.868 C11.4150509,24.8343447 11.5120066,24.8167856 11.6097218,24.816 C11.7074674,24.816 11.8031767,24.8333333 11.8948132,24.8701667 L16.4359115,26.6901667 L16.5031116,26.714 L16.543839,26.714 C16.9551851,26.857 17.3380221,26.9306667 17.69235,26.9306667 C18.0385323,26.9306667 18.6698061,26.8461667 19.2359161,26.3976667 C19.8305352,25.9231667 20.3335179,25.0651667 20.3864634,23.5636667 L20.3864634,23.5225 L20.1217357,18.6431667 C20.1217357,18.4698333 20.1624631,18.2705 20.2805724,18.0928333 L23.2394136,13.753 C23.9378874,12.7173333 24.1557787,11.6881667 23.891051,10.7413333 C23.6263233,9.75983334 22.9095221,9.05133334 21.771193,8.61366666 L21.7304656,8.59633334 C21.6947294,8.5791133 21.6571013,8.56673861 21.6184654,8.5595 L17.614968,7.39816666 C17.4301789,7.32315277 17.2701551,7.19206522 17.1547491,7.02116666 C16.2791113,5.58033332 15.3932917,4.08966666 14.4769265,2.60116666 L14.4565628,2.5535 L14.4382355,2.51666666 L14.4178719,2.4885 C13.7499435,1.5265 12.8763421,1 11.9966315,1 L11.9986679,1 Z" id="形状"></path>
            <path d="M17.67648,0.666666656 L17.67648,3.33333334 L31.9618133,3.33333334 L31.9618133,0.666666656 L17.67648,0.666666656 Z M23.0098133,24.6666667 L23.0098133,27.3333333 L31.58048,27.3333333 L31.58048,24.6666667 L23.0098133,24.6666667 Z M25.67648,11.3333333 L25.67648,14 L31.3911467,14 L31.3911467,11.3333333 L25.67648,11.3333333 Z" id="形状"></path>
        </g>
    </g>
</svg>