<svg width="1024" height="1024" xmlns="http://www.w3.org/2000/svg" class="icon">
 <defs>
  <style type="text/css"/>
 </defs>
 <g>
  <title>background</title>
  <rect fill="none" id="canvas_background" height="402" width="582" y="-1" x="-1"/>
 </g>
 <g>
  <title>Layer 1</title>
  <path id="svg_1" fill="#dddddd" d="m256,43.426909a217.227636,217.227636 0 0 1 182.690909,334.754909c7.354182,2.327273 14.429091,5.725091 21.038546,10.100364c5.352727,-14.568727 13.917091,-27.554909 25.553454,-37.701818l2.141091,-1.861819a87.831273,87.831273 0 0 1 98.350545,-11.682909c4.747636,-15.918545 14.056727,-30.254545 26.437819,-40.96l2.094545,-1.861818c36.770909,-31.930182 92.206545,-28.066909 122.740364,9.914182l171.380363,197.166545a223.138909,223.138909 0 0 1 -21.690181,314.647273l-137.355637,119.528727a223.511273,223.511273 0 0 1 -196.235636,49.012364l-294.865455,-68.049454a86.714182,86.714182 0 0 1 -67.351272,-85.364364l0.232727,-12.567273a84.340364,84.340364 0 0 1 85.131636,-83.316363l3.258182,0.232727l47.290182,2.327273a13.730909,13.730909 0 0 0 13.824,-12.660364a12.8,12.8 0 0 0 -2.978909,-9.169455l-197.585455,-227.188363a87.691636,87.691636 0 0 1 -21.597091,-59.904a217.227636,217.227636 0 0 1 137.495273,-385.396364zm440.413091,296.029091a32.349091,32.349091 0 0 0 -45.568,-3.165091l-2.094546,1.861818a32.349091,32.349091 0 0 0 -3.211636,45.521455l61.114182,70.283636a30.999273,30.999273 0 0 1 -3.118546,44.916364a30.999273,30.999273 0 0 1 -44.916363,-3.118546l-88.762182,-102.120727a32.349091,32.349091 0 0 0 -45.568,-3.165091l-2.094545,1.861818a32.349091,32.349091 0 0 0 -3.211637,45.521455l68.189091,78.429091a30.999273,30.999273 0 0 1 -3.118545,44.916363a30.999273,30.999273 0 0 1 -44.916364,-3.118545l-102.586182,-117.992727a32.349091,32.349091 0 0 0 -45.568,-3.211637l-2.094545,1.861819a32.349091,32.349091 0 0 0 -3.211637,45.568l81.687273,93.975272a30.999273,30.999273 0 0 1 -3.118545,44.916364a30.999273,30.999273 0 0 1 -44.916364,-3.165091l-185.204364,-213.038545a32.349091,32.349091 0 0 0 -45.568,-3.165091l-1.396363,1.210181a32.349091,32.349091 0 0 0 -3.211637,45.614546l197.166546,226.769454a68.701091,68.701091 0 0 1 -6.795637,97.093819c-13.405091,11.636364 -31.092364,17.687273 -48.593454,16.849454l-47.290182,-2.327273a28.718545,28.718545 0 0 0 -30.114909,27.461819l-0.093091,1.303272l-0.232727,12.567273a30.999273,30.999273 0 0 0 24.064,30.533818l294.865454,68.096a167.842909,167.842909 0 0 0 147.269819,-36.817454l137.076363,-119.156364a167.424,167.424 0 0 0 16.523637,-236.450909l-171.380364,-197.12zm-611.793455,-431.057455a155.136,155.136 0 0 0 59.950546,460.241455l4.282182,-4.096l2.094545,-1.861818c11.357091,-9.867636 24.482909,-16.290909 38.167273,-19.409455a106.402909,106.402909 0 1 1 80.989091,22.807273l5.026909,5.306182l31.325091,36.026182a155.229091,155.229091 0 0 0 -50.455273,-301.893819l-171.380364,-197.12z"/>
  <line stroke="#515151" stroke-linecap="undefined" stroke-linejoin="undefined" id="svg_2" y2="-6.707324" x2="953.657252" y1="960.768809" x1="-2.988924" fill-opacity="null" stroke-opacity="null" stroke-width="80" fill="none"/>
  <line stroke="#515151" stroke-linecap="undefined" stroke-linejoin="undefined" id="svg_4" y2="66.624438" x2="1026.989014" y1="1034.100571" x1="70.342838" fill-opacity="null" stroke-opacity="null" stroke-width="80" fill="none"/>
  <line stroke="#dddddd" stroke-linecap="undefined" stroke-linejoin="undefined" id="svg_3" y2="28.261933" x2="990.323088" y1="995.738066" x1="33.676912" fill-opacity="null" stroke-width="80" fill="none"/>
 </g>
</svg>