<?xml version="1.0" encoding="UTF-8"?>
<svg width="1424px" height="1453px" viewBox="0 0 1424 1453" version="1.1" xmlns="http://www.w3.org/2000/svg" xmlns:xlink="http://www.w3.org/1999/xlink">
    <title>disableAnimation</title>
    <defs>
        <path d="M35.999995,1350 L1306,0" id="path-1"></path>
        <filter x="-12.6%" y="-11.9%" width="125.2%" height="123.8%" filterUnits="objectBoundingBox" id="filter-2">
            <feMorphology radius="50" operator="dilate" in="SourceAlpha" result="shadowSpreadOuter1"></feMorphology>
            <feOffset dx="60" dy="60" in="shadowSpreadOuter1" result="shadowOffsetOuter1"></feOffset>
            <feMorphology radius="50" operator="erode" in="SourceAlpha" result="shadowInner"></feMorphology>
            <feOffset dx="60" dy="60" in="shadowInner" result="shadowInner"></feOffset>
            <feComposite in="shadowOffsetOuter1" in2="shadowInner" operator="out" result="shadowOffsetOuter1"></feComposite>
            <feColorMatrix values="0 0 0 0 0   0 0 0 0 0   0 0 0 0 0  0 0 0 1 0" type="matrix" in="shadowOffsetOuter1" result="shadowMatrixOuter1"></feColorMatrix>
            <feMorphology radius="50" operator="dilate" in="SourceAlpha" result="shadowSpreadOuter2"></feMorphology>
            <feOffset dx="-60" dy="-60" in="shadowSpreadOuter2" result="shadowOffsetOuter2"></feOffset>
            <feMorphology radius="50" operator="erode" in="SourceAlpha" result="shadowInner"></feMorphology>
            <feOffset dx="-60" dy="-60" in="shadowInner" result="shadowInner"></feOffset>
            <feComposite in="shadowOffsetOuter2" in2="shadowInner" operator="out" result="shadowOffsetOuter2"></feComposite>
            <feColorMatrix values="0 0 0 0 0   0 0 0 0 0   0 0 0 0 0  0 0 0 1 0" type="matrix" in="shadowOffsetOuter2" result="shadowMatrixOuter2"></feColorMatrix>
            <feMerge>
                <feMergeNode in="shadowMatrixOuter1"></feMergeNode>
                <feMergeNode in="shadowMatrixOuter2"></feMergeNode>
            </feMerge>
        </filter>
    </defs>
    <g id="页面-1" stroke="none" stroke-width="1" fill="none" fill-rule="evenodd">
        <g id="disableAnimation" transform="translate(18.000000, 53.000000)">
            <g id="Layer-1">
                <path d="M587.562487,166 C603.805107,166 620.446319,177.461905 637.286827,199.588367 L637.984363,201.083398 L638.58225,202.179754 L639.279787,203.176442 C674.654819,257.396239 735.938325,354.074922 769.818637,404.905982 C786.659145,431.716875 811.670788,451.052611 842.163069,458.727105 L1039.76501,514.441933 L1042.25621,515.139614 L1042.8541,515.139614 C1069.26081,525.903838 1084.8059,538.860775 1089.3897,553.811087 C1094.07316,570.655105 1088.69217,590.688523 1071.25377,615.306702 L926.465258,811.654131 C908.677897,835.690775 899.927934,865.228056 901.75256,895.076871 L913.012781,1116.14215 L913.012781,1116.74016 C911.617709,1147.93648 905.040943,1168.56791 892.38565,1178.73412 C885.556045,1184.00036 877.085538,1186.68324 868.470135,1186.30894 C859.501817,1186.30894 849.038779,1184.31557 836.582783,1180.12948 L616.759343,1096.80641 C603.439262,1091.54371 589.228248,1088.90397 574.907193,1089.03225 C558.030343,1089.06635 541.317746,1092.34866 525.681092,1098.70012 L335.552751,1177.43843 C314.527028,1184.41524 298.882295,1189 286.426297,1189 C277.657275,1189 271.778044,1186.70762 267.393534,1181.32551 C259.421695,1170.95996 256.033665,1149.63085 258.823808,1116.83983 L265.300926,864.877241 C266.984948,834.694807 257.396116,804.963233 238.395972,781.454501 C218.964617,758.331353 196.543822,727.334372 182.094864,709.393998 C157.980053,678.696024 133.665947,649.293745 110.746913,618.595771 L110.746913,617.89809 L107.857121,613.213659 C90.1197816,583.811379 84.2405505,562.183262 90.3190768,544.8409 C95.7997151,531.38562 110.846561,519.026696 135.957851,510.953526 L361.261929,440.487724 C390.060194,430.720187 414.473949,411.583788 431.414105,384.872564 L541.126528,200.88406 C556.472316,177.561574 571.419513,166 587.562487,166 L587.562487,166 Z M586.934839,78 C553.066663,78 506.746951,92.8503337 467.798547,154.145334 L356.930075,339.027 C351.137184,346.86419 343.170202,352.82536 334.019249,356.169666 L108.098589,426.235334 C55.3040784,442.979334 20.0413299,473.876 6.89250956,516.035 C-7.55127123,556.4 0.716547559,604.339666 31.5963552,656.066666 C32.9640072,659.811868 35.180207,663.189154 38.0711541,665.933666 C80.705212,722.145666 124.933066,776.862666 167.567123,833.074666 C171.452002,843.838666 174.340759,853.705666 178.126026,864.37 L171.850452,1109.74933 C168.26441,1164.96467 178.026414,1207.72167 202.232198,1236.12667 C223.947676,1260.246 253.233687,1274 287.500314,1274 C309.614241,1274 334.915761,1268.41867 363.006424,1254.266 L553.863561,1175.928 C558.386241,1174.37986 563.12899,1173.57214 567.908893,1173.536 C572.690282,1173.536 577.37206,1174.33333 581.854613,1176.02767 L803.990006,1259.74767 L807.277211,1260.844 L809.269457,1260.844 C829.391138,1267.422 848.118248,1270.81067 865.450785,1270.81067 C882.384874,1270.81067 913.264682,1266.92367 940.956896,1246.29267 C970.043682,1224.46567 994.647917,1184.99767 997.237837,1115.92867 L997.237837,1114.035 L984.288239,889.585666 C984.288239,881.612333 986.280485,872.443 992.057997,864.270334 L1136.79465,664.638 C1170.96166,616.997334 1181.62017,569.655666 1168.67058,526.101334 C1155.72098,480.952334 1120.65746,448.361334 1064.97419,428.228666 L1062.98194,427.431334 C1061.23385,426.639212 1059.39321,426.069976 1057.50327,425.737 L861.665518,372.315666 C852.62625,368.865027 844.798419,362.835 839.153142,354.973666 C796.319861,288.695333 752.988517,220.124666 708.162988,151.653666 L707.166866,149.461 L706.270355,147.766666 L705.274233,146.471 C672.601403,102.219 629.867733,78 586.835226,78 L586.934839,78 L586.934839,78 Z" id="svg_1" fill="#DDDDDD" fill-rule="nonzero"></path>
                <path d="M948.64736,249.333333 L948.64736,334.666667 L1405.77803,334.666667 L1405.77803,249.333333 L948.64736,249.333333 Z M1125.31403,1017.33333 L1125.31403,1102.66667 L1399.57536,1102.66667 L1399.57536,1017.33333 L1125.31403,1017.33333 Z M1214.64736,590.666667 L1214.64736,676 L1397.51669,676 L1397.51669,590.666667 L1214.64736,590.666667 Z" id="svg_2" fill="#DDDDDD" fill-rule="nonzero"></path>
                <g id="svg_3">
                    <use fill="black" fill-opacity="1" filter="url(#filter-2)" xlink:href="#path-1"></use>
                    <use stroke="#DDDDDD" stroke-width="100" xlink:href="#path-1"></use>
                </g>
            </g>
        </g>
    </g>
</svg>