<?xml version="1.0" encoding="UTF-8"?>
<svg width="40px" height="39px" viewBox="0 0 40 39" version="1.1" xmlns="http://www.w3.org/2000/svg" xmlns:xlink="http://www.w3.org/1999/xlink">
    <title>hide</title>
    <g id="页面-1" stroke="none" stroke-width="1" fill="none" fill-rule="evenodd">
        <g id="hide" transform="translate(0.968750, 0.000000)" fill="#DDDDDD" fill-rule="nonzero">
            <path d="M36.9093603,0.459147396 C37.1544718,0.746281894 37.2880743,1.13126232 37.2810255,1.52928751 C37.2734029,1.9273127 37.1257307,2.30573149 36.8702504,2.58118807 L3.53794862,38.5818782 C3.19434915,38.9530843 2.70082689,39.0898608 2.24328691,38.9406855 C1.78574692,38.7915101 1.43370042,38.3790461 1.31975992,37.8586647 C1.20581942,37.3382833 1.34729518,36.7890428 1.69089467,36.4178367 L35.0231965,0.417146591 C35.5544731,-0.155796043 36.3978934,-0.136101987 36.9075826,0.461147434 L36.9093603,0.459147396 Z M19.0328333,7.38394553 C20.4151446,7.3683721 21.7936118,7.55172048 23.1352018,7.92959702 C23.7717946,8.10852656 24.1599032,8.8386034 24.0020666,9.5602693 C23.8442301,10.2819352 23.200218,10.72191 22.5636252,10.5429804 C21.4121167,10.218464 20.2288195,10.061642 19.0423332,10.0763048 L19.0090836,10.0763048 C13.1302359,9.96502065 6.83339315,14.6892138 2.77694076,19.7472595 C2.28361175,20.3700652 2.28361175,21.3142393 2.77694076,21.937045 C3.99134317,23.4429713 5.31816094,24.8304338 6.7415609,26.0832783 C7.25966695,26.539276 7.35359277,27.3850723 6.9513501,27.9724171 C6.54910743,28.559762 5.80301738,28.6662399 5.28491133,28.2102422 C3.7542763,26.8623718 2.32733655,25.3696336 1.01946138,23.7481054 L1.01312813,23.7409258 C-0.296042709,22.0933535 -0.296042709,19.590951 1.01312813,17.9433787 L1.01787807,17.937994 C5.25799498,12.6537901 12.1533307,7.26368682 19.0328333,7.38394553 Z M30.3408673,13.1061065 C30.5264549,12.8176005 30.8055492,12.6245002 31.1167393,12.5692946 C31.4279295,12.514089 31.7457185,12.6013014 32.0001811,12.8117419 C33.8289097,14.3266427 35.5183065,16.0425731 37.0446219,17.9415838 L37.0493719,17.9469685 C38.3585427,19.5945408 38.3585427,22.0969433 37.0493719,23.7445156 L37.0462052,23.7481054 C32.8995039,28.92282 26.0200013,34.433182 19.0249167,34.3075386 C17.2779183,34.3206762 15.5395846,34.0282584 13.8712272,33.4405989 C13.4564522,33.3070235 13.1381405,32.9290618 13.0396406,32.453177 C12.9411407,31.9772922 13.0779325,31.4782725 13.3970081,31.1494924 C13.7160836,30.8207122 14.1672981,30.7138414 14.5758023,30.8702932 C16.0166187,31.3764567 17.5144345,31.6277436 19.0217501,31.6151793 L19.0502498,31.6151793 C25.0335962,31.7300533 31.3130225,26.8999607 35.2871426,21.9406348 C35.7804716,21.3178291 35.7804716,20.373655 35.2871426,19.7508493 C33.8696693,17.988965 32.2995745,16.3930506 30.6005309,14.9871682 C30.0710913,14.5484946 29.9555496,13.706349 30.3424506,13.1061065 L30.3408673,13.1061065 Z M19.0280834,15.4610234 C16.4045308,15.4610234 14.2781391,17.8715825 14.2797224,20.845742 C14.2797224,21.5892165 13.7480668,22.1919217 13.0922364,22.1919217 C12.4364059,22.1919217 11.9047496,21.5892165 11.9047496,20.845742 C11.9039102,18.703898 12.6538644,16.6494523 13.9895426,15.1346031 C15.3252208,13.6197539 17.1371458,12.7686641 19.0265001,12.7686641 L19.0296667,12.7686641 C19.6854971,12.7686641 20.2171527,13.3713693 20.2171527,14.1148438 C20.2171527,14.8583183 19.6854971,15.4610234 19.0296667,15.4610234 L19.0280834,15.4610234 L19.0280834,15.4610234 Z M24.967097,19.4977675 C25.6229274,19.4977675 26.1545832,20.1004726 26.1545832,20.8439471 C26.1554578,25.3040934 22.9671976,28.9208378 19.0328333,28.92282 L19.0296667,28.92282 C18.3738363,28.92282 17.8421807,28.3201148 17.8421807,27.5766403 C17.8421807,26.8331658 18.3738363,26.2304607 19.0296667,26.2304607 C20.2894302,26.2304607 21.4975971,25.6631437 22.3883845,24.6533131 C23.2791718,23.6434825 23.7796109,22.2738582 23.7796109,20.845742 C23.7791907,20.4884021 23.9041149,20.1455348 24.1268573,19.8926888 C24.3495997,19.6398428 24.6518816,19.4977675 24.967097,19.4977675 Z" id="形状"></path>
        </g>
    </g>
</svg>