<?xml version="1.0" standalone="no"?><!DOCTYPE svg PUBLIC "-//W3C//DTD SVG 1.1//EN" "http://www.w3.org/Graphics/SVG/1.1/DTD/svg11.dtd"><svg t="1590654813989" class="icon" viewBox="0 0 1024 1024" version="1.1" xmlns="http://www.w3.org/2000/svg" p-id="16033" width="32" height="32" xmlns:xlink="http://www.w3.org/1999/xlink"><defs><style type="text/css"></style></defs><path d="M307.6608 905.472c3.3792 19.5584 0 34.56-9.1136 43.7248-9.1136 9.216-25.0368 11.52-43.2128 6.912l-221.9008-65.536c-37.5296-10.3936-44.3392-41.472-15.872-67.9424l60.2624-56.32c-1.1264-1.1776-1.1264-2.3552-2.304-3.4816-122.88-209.408-79.616-470.5792 88.7808-628.224 25.0368-24.1664 53.4528-44.8512 84.1728-64.4096A479.8464 479.8464 0 0 1 490.8544 0v75.9296a425.8304 425.8304 0 0 0-203.6736 59.8528 489.8816 489.8816 0 0 0-71.68 54.0672 432.7936 432.7936 0 0 0-81.92 523.52l61.44-57.5488c28.416-26.4704 58.0096-17.2544 65.9968 20.6848l46.592 228.9664z m448.256-567.1936c7.9872 37.9392 37.5808 47.1552 66.048 20.6848l61.44-57.4976c96.6656 174.848 59.136 391.168-80.8448 523.4688a420.096 420.096 0 0 1-71.68 54.1184c-63.6928 39.1168-134.2464 57.4976-203.6224 59.8016v75.9296a503.808 503.808 0 0 0 242.3296-70.144c30.72-18.432 59.1872-40.2944 84.1728-64.4608 167.2704-157.6448 209.408-418.816 86.528-627.0464-1.1776-1.1776-1.1776-2.304-2.304-3.4816l60.3136-56.32c28.416-26.5216 21.6064-57.5488-15.9232-67.9424l-221.9008-64.4096c-18.176-5.7344-34.0992-2.304-43.2128 6.912-9.1136 9.216-13.6704 24.1664-9.1136 43.7248l47.7696 226.6624z" p-id="16034" fill="#dddddd"></path></svg>