<svg width="1024" height="1024" xmlns="http://www.w3.org/2000/svg" class="icon">
 <defs>
  <style type="text/css"/>
 </defs>
 <g>
  <title>background</title>
  <rect fill="none" id="canvas_background" height="402" width="582" y="-1" x="-1"/>
 </g>
 <g>
  <title>Layer 1</title>
  <path stroke="null" id="svg_1" fill="#dddddd" d="m1010.368273,856.258491c-11.875632,-11.31585 -31.102845,-11.31585 -42.865376,0l-68.991766,65.739701l0,-334.949166c0,-15.94996 -13.572151,-28.882361 -30.311137,-28.882361s-30.311137,12.9324 -30.311137,28.882361l0,334.841396l-68.991766,-65.739701c-11.875632,-11.31585 -31.102845,-11.31585 -42.865376,0c-11.875632,11.31585 -11.875632,29.636751 0,40.844831l120.113534,114.451742c0.113101,0.10777 0.226203,0.10777 0.339304,0.21554c5.541962,5.3885 13.232847,8.83714 21.715441,8.83714s16.17348,-3.34087 21.715441,-8.83714c0.113101,-0.10777 0.226203,-0.10777 0.339304,-0.21554l120.113534,-114.343972c11.875632,-11.31585 11.875632,-29.636751 0,-40.844831z"/>
  <path stroke="null" id="svg_2" fill="#dddddd" d="m665.668868,897.005003l-212.828924,0l-177.876993,-511.376668l-217.363229,111.81337l0,-377.039741c0,-13.675017 9.068609,-24.706963 20.309906,-24.706963l739.847375,0c11.146832,0 20.309906,11.031946 20.309906,24.706963l0,382.210966c0,17.007584 11.335762,30.797516 25.316534,30.797516s25.316534,-13.789933 25.316534,-30.797516l0,-406.917929c0,-34.015167 -22.671523,-61.595032 -50.633069,-61.595032l-780.467188,0c-27.961545,0 -50.633069,27.579865 -50.633069,61.595032l0,801.310002c0,34.015167 22.671523,61.595032 50.633069,61.595032l608.069146,0c13.980773,0 25.316534,-13.789933 25.316534,-30.797516c0,-16.892667 -11.335762,-30.797516 -25.316534,-30.797516zm-587.75924,0c-11.146832,0 -20.309906,-11.031946 -20.309906,-24.706963l0,-307.975162l190.440795,-98.023438l149.820983,430.705562l-319.951872,0z"/>
  <path id="svg_3" fill="#dddddd" d="m649.3,220c-56.2,0 -101.9,45.7 -101.9,101.9s45.7,101.9 101.9,101.9s101.9,-45.7 101.9,-101.9s-45.7,-101.9 -101.9,-101.9zm0,150.2c-26.6,0 -48.3,-21.7 -48.3,-48.3c0,-26.6 21.7,-48.3 48.3,-48.3c26.6,0 48.3,21.7 48.3,48.3c0,26.6 -21.7,48.3 -48.3,48.3z"/>
 </g>
</svg>