<?xml version="1.0" encoding="UTF-8"?>
<svg width="1000px" height="1000px" viewBox="0 0 1000 1000" version="1.1" xmlns="http://www.w3.org/2000/svg" xmlns:xlink="http://www.w3.org/1999/xlink">
    <title>searchNode</title>
    <g id="页面-1" stroke="none" stroke-width="1" fill="none" fill-rule="evenodd">
        <g id="searchNode" fill="#DDDDDD" fill-rule="nonzero" stroke="#000000">
            <g id="Layer-1">
                <path d="M794.325472,999.17599 L205.674556,999.17599 C92.65358,999.17599 0.824037,907.346447 0.824037,794.325471 L0.824037,205.674555 C0.824037,92.653579 92.65358,0.824036 205.674556,0.824036 L794.325472,0.824036 C907.346448,0.824036 999.175991,92.653579 999.175991,205.674555 L999.175991,794.325471 C999.175991,907.346447 907.346448,999.17599 794.325472,999.17599 Z M205.674556,66.752939 C129.149937,66.752939 66.75294,129.149936 66.75294,205.674555 L66.75294,794.325471 C66.75294,870.85009 129.149937,933.247087 205.674556,933.247087 L794.325472,933.247087 C870.850091,933.247087 933.247088,870.85009 933.247088,794.325471 L933.247088,205.674555 C933.247088,129.149936 870.850091,66.752939 794.325472,66.752939 L205.674556,66.752939 Z" id="svg_1"></path>
                <path d="M758.034062,757.571878 C745.083003,770.521744 724.070194,770.521744 711.119135,757.571878 L664.205401,710.656951 C654.919534,702.592814 651.009757,689.887533 653.942388,677.91362 C656.875018,665.9409 666.159693,656.656226 678.376997,653.479011 C690.349717,650.547574 703.056191,654.45735 711.119135,663.742024 L758.034062,710.656951 C770.983928,723.851401 770.983928,744.620819 758.034062,757.570685 M303.549135,647.370358 C233.910498,577.976306 213.14108,473.396655 250.77014,382.744016 C288.400393,291.846792 376.852963,232.715753 475.079377,232.715753 C573.306984,232.715753 662.004139,291.846792 699.389807,382.744016 C737.018867,473.64124 716.004864,577.976306 646.610812,647.370358 C551.805005,742.177358 398.354942,742.177358 303.547942,647.370358 M608.004607,344.381202 C545.696353,281.340387 447.712138,271.077374 373.675749,319.703201 C299.63936,368.329028 270.562413,462.645666 304.037112,544.744999 C337.513004,626.845525 424.255867,673.760452 511.242122,656.900811 C598.230763,640.039976 661.271578,564.292687 661.518488,475.595532 C661.760748,426.726313 642.701037,379.32341 608.004607,344.381202" id="svg_2"></path>
            </g>
        </g>
    </g>
</svg>