<?xml version="1.0" standalone="no"?><!DOCTYPE svg PUBLIC "-//W3C//DTD SVG 1.1//EN" "http://www.w3.org/Graphics/SVG/1.1/DTD/svg11.dtd"><svg t="1590759168305" class="icon" viewBox="0 0 1026 1024" version="1.1" xmlns="http://www.w3.org/2000/svg" p-id="11879" xmlns:xlink="http://www.w3.org/1999/xlink" width="32.0625" height="32"><defs><style type="text/css"></style></defs><path d="M4.266667 514.133333C4.266667 795.733333 232.533333 1024 514.133333 1024S1024 795.733333 1024 514.133333 795.733333 2.133333 514.133333 2.133333 4.266667 230.4 4.266667 514.133333z" fill="#94e454" p-id="11880"></path><path d="M441.6 642.133333h149.333333v164.266667h-149.333333v-164.266667z" fill="#D9A78C" p-id="11881"></path><path d="M516.266667 172.8c72.533333 0 187.733333 40.533333 187.733333 234.666667 0 110.933333-36.266667 185.6-53.333333 204.8-14.933333 19.2-96 57.6-134.4 57.6V172.8z" fill="#F2D7BC" p-id="11882"></path><path d="M740.266667 454.4c4.266667-29.866667-10.666667-57.6-32-61.866667-21.333333-2.133333-40.533333 19.2-44.8 51.2-4.266667 29.866667 10.666667 57.6 32 61.866667 21.333333 2.133333 40.533333-21.333333 44.8-51.2zM516.266667 172.8c-72.533333 0-187.733333 40.533333-187.733334 234.666667 0 110.933333 36.266667 185.6 53.333334 204.8 14.933333 19.2 96 57.6 134.4 57.6V172.8z" fill="#F2D7BC" p-id="11883"></path><path d="M292.266667 454.4c-4.266667-29.866667 10.666667-57.6 32-61.866667 21.333333-2.133333 40.533333 19.2 44.8 51.2 2.133333 29.866667-10.666667 57.6-32 61.866667-21.333333 2.133333-42.666667-21.333333-44.8-51.2z" fill="#F2D7BC" p-id="11884"></path><path d="M260.266667 782.933333c-10.666667 10.666667-29.866667 81.066667-42.666667 145.066667 83.2 59.733333 187.733333 96 298.666667 96h2.133333V746.666667l-93.866667-8.533334c-2.133333 2.133333-145.066667 21.333333-164.266666 44.8z" fill="#d0d4d7" p-id="11885"></path><path d="M516.266667 1024c110.933333 0 215.466667-36.266667 298.666666-98.133333-14.933333-61.866667-32-132.266667-42.666666-142.933334-21.333333-21.333333-164.266667-42.666667-164.266667-42.666666l-91.733333 6.4v277.333333z" fill="#d0d4d7" p-id="11886"></path><path d="M516.266667 746.666667l-76.8-29.866667-19.2 19.2 38.4 83.2 57.6-72.533333zM516.266667 746.666667l76.8-29.866667 19.2 19.2-38.4 83.2-57.6-72.533333z" fill="#FFFFFF" p-id="11887"></path><path d="M708.266667 396.8s61.866667-279.466667-192-279.466667c-256 0-192 273.066667-192 273.066667s34.133333-19.2 34.133333 70.4h6.4s12.8-59.733333 17.066667-113.066667c89.6 0 168.533333-10.666667 236.8-66.133333 38.4 0 42.666667 46.933333 42.666666 83.2l-17.066666 6.4s17.066667 32 17.066666 89.6h10.666667c0-2.133333-2.133333-100.266667 36.266667-64z" fill="#2F343A" p-id="11888"></path><path d="M516.266667 597.333333c34.133333 0 61.866667-10.666667 61.866666-25.6h-121.6c-2.133333 14.933333 25.6 25.6 59.733334 25.6z" fill="#FFFFFF" p-id="11889"></path></svg>