<?xml version="1.0" standalone="no"?><!DOCTYPE svg PUBLIC "-//W3C//DTD SVG 1.1//EN" "http://www.w3.org/Graphics/SVG/1.1/DTD/svg11.dtd"><svg t="1590759054601" class="icon" viewBox="0 0 1024 1024" version="1.1" xmlns="http://www.w3.org/2000/svg" p-id="3105" xmlns:xlink="http://www.w3.org/1999/xlink" width="32" height="32"><defs><style type="text/css"></style></defs><path d="M512 512m-448 0a448 448 0 1 0 896 0 448 448 0 1 0-896 0Z" fill="#FEF4EB" p-id="3106"></path><path d="M383.3 496h-0.5c-16.9 0-30.7 13.8-30.7 30.7v12.5c0 16.9 13.8 30.7 30.7 30.7h0.5c16.9 0 30.7-13.8 30.7-30.7v-12.5c0-16.9-13.8-30.7-30.7-30.7zM641.3 496h-0.5c-16.9 0-30.7 13.8-30.7 30.7v12.5c0 16.9 13.8 30.7 30.7 30.7h0.5c16.9 0 30.7-13.8 30.7-30.7v-12.5c0-16.9-13.8-30.7-30.7-30.7z" p-id="3107"></path><path d="M207 535.3c-63.5 0-115.8 47.7-123.1 109.1 13.4 43.4 33.2 84 58.4 120.6 18.8 11.6 41 18.2 64.7 18.2 68.5 0 124-55.5 124-124s-55.5-123.9-124-123.9zM940.1 644.4c-7.3-61.5-59.7-109.1-123.1-109.1-68.5 0-124 55.5-124 124s55.5 124 124 124c23.7 0 45.9-6.7 64.7-18.2 25.2-36.7 45-77.3 58.4-120.7z" fill="#FF6F61" p-id="3108"></path><path d="M944.8 396C893.7 204.8 719.3 64 512 64S130.3 204.8 79.2 396h100.4c39.8 0 73.5-27.2 83.4-63.9 10 36.7 43.7 63.9 83.4 63.9h331.1c39.8 0 73.5-27.2 83.4-63.9 10 36.7 43.7 63.9 83.4 63.9h100.5z" p-id="3109"></path></svg>