<?xml version="1.0" standalone="no"?><!DOCTYPE svg PUBLIC "-//W3C//DTD SVG 1.1//EN" "http://www.w3.org/Graphics/SVG/1.1/DTD/svg11.dtd"><svg t="1590759050503" class="icon" viewBox="0 0 1024 1024" version="1.1" xmlns="http://www.w3.org/2000/svg" p-id="2974" xmlns:xlink="http://www.w3.org/1999/xlink" width="32" height="32"><defs><style type="text/css"></style></defs><path d="M512 0C229.25 0 0 229.25 0 512c0 174.154 86.987 327.98 219.863 420.475a287.587 287.587 0 0 1 22.366-55.58c-26.779-7.1-44.258-33.537-39.616-61.416 3.637-21.858 19.858-38.45 40.008-43.67-17.371-11.471-27.35-32.417-23.713-54.271 3.638-21.863 19.859-38.455 40.009-43.675-17.371-11.467-27.35-32.417-23.713-54.271a54.337 54.337 0 0 1 35.821-42.442v-4.292c-14.75-11.908-22.858-31.179-19.53-51.216a54.075 54.075 0 0 1 19.547-33.355c-0.017-1.229-0.092-2.445-0.092-3.683 0-21.35 2.808-42.037 8.017-61.75 6.716-26.75 18.087-50.925 32.654-72.25a241.925 241.925 0 0 1 107.812-88.612c31.65-13.842 64.271-20.317 93.288-18.475 97.741-6.196 236.308 81.437 240.846 227.712a54.104 54.104 0 0 1 19.475 33.296c3.35 20.117-4.838 39.47-19.705 51.367v4.079a54.342 54.342 0 0 1 36 42.5c3.634 21.854-6.341 42.804-23.712 54.27 20.146 5.23 36.37 21.813 40.008 43.676 3.634 21.858-6.346 42.804-23.716 54.27 20.15 5.225 36.375 21.817 40.012 43.675 4.925 29.605-15.087 57.6-44.696 62.53-1.366 0.229-2.725 0.345-4.079 0.466 13.342 21.646 23.809 45.446 31.163 71C937.1 839.85 1024.02 686.08 1024.02 511.992 1024 229.25 794.754 0 512 0z" fill="#A0D9F6" p-id="2975"></path><path d="M299.996 802.45v-0.12c0.937-0.85 1.904-1.667 2.854-2.51l1.563-1.374a271.333 271.333 0 0 1 9.045-7.558l0.859-0.696a281.958 281.958 0 0 1 21.533-15.48c0.454-0.295 0.92-0.583 1.38-0.874a282.142 282.142 0 0 1 9.7-5.959c0.724-0.429 1.45-0.85 2.174-1.27a291.38 291.38 0 0 1 9.967-5.484c0.529-0.275 1.05-0.567 1.583-0.842a298.192 298.192 0 0 1 24.35-11.237c0.775-0.317 1.563-0.613 2.338-0.93a313.446 313.446 0 0 1 23.458-8.291c0.925-0.283 1.842-0.592 2.775-0.867a327.13 327.13 0 0 1 26.53-6.75c1.2-0.258 2.416-0.479 3.62-0.72a342.208 342.208 0 0 1 24.32-3.946c1.38-0.175 2.75-0.367 4.134-0.525a357.917 357.917 0 0 1 14.08-1.359h25.75c-131.9 0-238.988-105.945-240.967-237.375a54.075 54.075 0 0 0-19.546 33.355c-3.334 20.037 4.775 39.308 19.529 51.216v4.292a54.337 54.337 0 0 0-35.82 42.442c-3.638 21.854 6.34 42.804 23.712 54.27-20.15 5.225-36.371 21.813-40.009 43.675-3.637 21.855 6.342 42.8 23.713 54.271-20.15 5.225-36.371 21.813-40.009 43.671-4.637 27.88 12.842 54.317 39.617 61.417a274.567 274.567 0 0 1 57.767-74.442z m212.237-76.8l-0.233 0.004 0.233-0.004z" fill="#FECF77" p-id="2976"></path><path d="M419.42 261.988A241.892 241.892 0 0 0 311.609 350.6c27.688-40.53 66.921-70.725 107.813-88.612zM512 725.654l0.233-0.004c130.5-0.125 236.65-103.958 240.634-233.525-63.704 39.183-229.075-17.68-279.525-104.48-46.504 80.922-124.813 152.067-200.863 104.16-1.312-24.534 1.109-47.56 6.484-68.955a241.396 241.396 0 0 0-8.017 61.75c0 1.233 0.075 2.45 0.092 3.683C273.013 619.708 380.1 725.654 512 725.654z" fill="#FCE9EA" p-id="2977"></path><path d="M473.337 387.646c50.455 86.8 215.821 143.662 279.525 104.479-3.983 129.567-110.133 233.4-240.633 233.525v0.004h25.754c4.725 0.354 9.4 0.821 14.042 1.354 1.43 0.163 2.837 0.359 4.254 0.542a348.658 348.658 0 0 1 14.35 2.108 343.417 343.417 0 0 1 9.696 1.796c1.296 0.259 2.596 0.496 3.883 0.771a327.678 327.678 0 0 1 26.305 6.692c1.079 0.32 2.141 0.67 3.212 1.004a314.758 314.758 0 0 1 13.225 4.433 305.158 305.158 0 0 1 9.62 3.65c0.922 0.367 1.842 0.717 2.755 1.092a300.017 300.017 0 0 1 24.054 11.104c0.717 0.37 1.417 0.758 2.13 1.133a289.392 289.392 0 0 1 21.1 12.28c0.62 0.404 1.262 0.787 1.883 1.195a283.425 283.425 0 0 1 21.162 15.217c0.53 0.417 1.042 0.85 1.567 1.27a284.583 284.583 0 0 1 10.417 8.8c0.704 0.622 1.42 1.234 2.116 1.86v0.09a274.25 274.25 0 0 1 49.371 59.313c1.354-0.12 2.713-0.241 4.08-0.466 29.603-4.93 49.616-32.921 44.695-62.53-3.633-21.858-19.862-38.454-40.012-43.674 17.37-11.467 27.35-32.413 23.716-54.271-3.637-21.863-19.862-38.45-40.008-43.675 17.37-11.467 27.346-32.417 23.712-54.271-3.391-20.392-17.729-36.225-36-42.5v-4.08c14.863-11.895 23.05-31.25 19.705-51.366a54.075 54.075 0 0 0-19.475-33.296C749 324.96 610.428 237.321 512.692 243.517c0.233 0.016 0.475 0.008 0.708 0.025 8.425 29.75-8.492 89.179-40.062 144.104z" fill="#FCBA6F" p-id="2978"></path><path d="M723.767 802.05v85.967c-33.088-50.584-167.263-59.859-211.65-6.692-44.613-53.425-179.875-43.792-212.121 7.45V802.45a274.533 274.533 0 0 0-57.771 74.446 287.587 287.587 0 0 0-22.367 55.579C302.712 990.155 403.4 1024 511.996 1024c108.666 0 209.412-33.892 292.296-91.633-7.355-25.555-17.817-49.355-31.163-71a273.783 273.783 0 0 0-49.362-59.317z" fill="#F4B3B3" p-id="2979"></path><path d="M721.654 800.096a272.73 272.73 0 0 0-10.416-8.8c-0.525-0.421-1.038-0.854-1.567-1.271a282.233 282.233 0 0 0-21.163-15.217c-0.62-0.408-1.262-0.791-1.883-1.196a301.958 301.958 0 0 0-11.742-7.129 281.57 281.57 0 0 0-9.358-5.15c-0.713-0.379-1.413-0.766-2.13-1.133a300.017 300.017 0 0 0-24.053-11.104c-0.913-0.375-1.834-0.725-2.755-1.092a301.308 301.308 0 0 0-13.195-4.917 318.546 318.546 0 0 0-9.65-3.166c-1.075-0.334-2.138-0.684-3.213-1.004a328.125 328.125 0 0 0-26.304-6.692c-1.288-0.27-2.588-0.513-3.883-0.77a362.042 362.042 0 0 0-9.696-1.797 331.775 331.775 0 0 0-14.35-2.108c-1.421-0.183-2.83-0.38-4.254-0.542A356.017 356.017 0 0 0 538 725.654h-51.738a357.917 357.917 0 0 0-14.079 1.358c-1.387 0.159-2.754 0.35-4.133 0.525a343.517 343.517 0 0 0-24.32 3.946c-1.21 0.242-2.422 0.463-3.622 0.721a327.57 327.57 0 0 0-26.529 6.75c-0.933 0.275-1.85 0.583-2.775 0.867a317.627 317.627 0 0 0-10.15 3.329l-3.212 1.133c-3.4 1.221-6.767 2.504-10.096 3.83-0.78 0.312-1.563 0.608-2.338 0.929a300.25 300.25 0 0 0-24.35 11.237c-0.529 0.275-1.054 0.567-1.583 0.842a298.746 298.746 0 0 0-12.142 6.754 279.642 279.642 0 0 0-9.7 5.958c-0.458 0.292-0.92 0.58-1.379 0.875a280.817 280.817 0 0 0-21.533 15.48l-0.859 0.695a276.508 276.508 0 0 0-9.045 7.559l-1.563 1.375c-0.95 0.837-1.917 1.654-2.854 2.508v86.446c32.246-51.242 167.512-60.875 212.12-7.45 44.388-53.167 178.56-43.888 211.65 6.691v-86.058c-0.7-0.625-1.412-1.233-2.116-1.858z" fill="#FEFEFE" p-id="2980"></path><path d="M272.475 491.804c76.05 47.913 154.358-23.237 200.863-104.158 31.566-54.93 48.483-114.354 40.079-144.108-0.234-0.017-0.475-0.009-0.709-0.025-29.016-1.842-61.637 4.633-93.287 18.475-40.892 17.887-80.125 48.083-107.813 88.612-14.566 21.325-25.937 45.5-32.654 72.25-5.366 21.396-7.791 44.42-6.479 68.954z" fill="#FECF77" p-id="2981"></path></svg>