<?xml version="1.0" standalone="no"?><!DOCTYPE svg PUBLIC "-//W3C//DTD SVG 1.1//EN" "http://www.w3.org/Graphics/SVG/1.1/DTD/svg11.dtd"><svg t="1590759045580" class="icon" viewBox="0 0 1024 1024" version="1.1" xmlns="http://www.w3.org/2000/svg" p-id="2843" xmlns:xlink="http://www.w3.org/1999/xlink" width="32" height="32"><defs><style type="text/css"></style></defs><path d="M512 0C229.376 0 0 229.376 0 512c0 174.08 87.04 327.68 220.16 419.84 26.112-90.112 91.136-158.208 180.224-188.928 3.584-1.536 7.68-2.56 11.264-3.584 0.512 0 1.024-0.512 2.048-0.512 8.704-2.56 17.92-5.12 27.136-6.656 1.024 0 2.048-0.512 2.56-0.512 5.12-1.024 9.728-2.048 14.848-2.56 3.584-0.512 7.168-1.024 10.24-1.536 1.024 0 2.56-0.512 3.584-0.512 4.608-0.512 9.216-1.024 14.336-1.536h51.712c4.608 0.512 9.216 1.024 14.336 1.536 1.536 0 2.56 0.512 4.096 0.512 4.608 0.512 9.728 1.536 14.336 2.048 3.584 0.512 6.656 1.024 10.24 2.048 1.024 0 2.56 0.512 3.584 0.512 9.216 2.048 17.92 4.096 26.624 6.656 1.024 0.512 2.048 0.512 3.072 1.024 3.072 1.024 6.656 2.048 9.728 3.072 89.088 30.72 155.136 98.816 180.736 188.928 132.096-92.16 219.136-246.272 219.136-419.84C1024 229.376 794.624 0 512 0z m0 725.504c-130.56 0-236.544-103.424-240.64-232.96 0 0-0.512 0-0.512-0.512-5.12-93.184 44.032-164.864 105.472-206.848 0.512 0 0.512-0.512 1.024-0.512 2.56-1.536 4.608-3.072 7.168-4.608 1.024-0.512 2.048-1.024 2.56-1.536 37.888-23.04 79.872-35.328 116.736-34.304h15.36c28.16-0.512 59.392 6.656 89.6 19.968 22.528 9.728 43.52 23.04 61.952 39.424 50.176 43.008 86.528 108.032 82.432 188.928-4.608 129.024-110.592 232.96-241.152 232.96z" fill="#B7DEFF" p-id="2844"></path><path d="M376.32 285.184c0.512 0 0.512-0.512 1.024-0.512 0 0-0.512 0.512-1.024 0.512z m143.36-41.472h-15.36c2.56 0 5.12 0 7.68 0.512 2.048-0.512 4.608-0.512 7.68-0.512z m-47.616 142.848c-46.08 81.408-124.928 153.088-201.216 105.472 4.096 129.536 110.592 232.96 240.64 232.96 130.56 0 236.544-103.424 240.64-232.96-62.976 39.936-230.4-17.408-280.064-105.472zM384.512 280.064c1.024-0.512 2.048-1.024 2.56-1.536-0.512 0-1.536 0.512-2.56 1.536z m224.768-16.384c22.528 10.24 43.008 23.552 61.952 39.424-18.944-15.872-39.936-29.184-61.952-39.424z" fill="#FCE9EA" p-id="2845"></path><path d="M610.304 738.816c1.024 0.512 2.048 0.512 3.072 1.024-0.512-0.512-2.048-1.024-3.072-1.024zM440.32 731.648c1.024 0 2.048-0.512 2.56-0.512-0.512 0.512-1.536 0.512-2.56 0.512z m-28.672 7.68c0.512 0 1.024-0.512 2.048-0.512-1.024 0-1.536 0.512-2.048 0.512z m211.456 3.584c0.512 0 1.536 0.512 2.048 1.024-2.56 7.68-6.144 15.36-10.24 22.016 16.896 26.624 12.8 141.312-12.8 123.392l-45.056-31.744-45.056-31.744 3.072-2.048h-6.144l3.072 2.048-45.056 31.744-45.056 31.744c-26.112 17.92-30.208-97.28-12.8-123.392-4.096-7.168-7.68-14.336-10.24-22.016 0.512 0 1.024-0.512 1.536-0.512-89.088 30.72-154.624 98.304-180.224 188.416 82.944 57.856 183.296 91.648 291.84 91.648 108.544 0 209.408-33.792 292.352-91.648-26.112-90.112-91.648-158.208-181.248-188.928z m-42.496-11.776c1.024 0 2.56 0.512 3.584 0.512-1.536 0-2.56 0-3.584-0.512z m-112.128-4.096c1.024 0 2.56-0.512 3.584-0.512-1.024 0.512-2.56 0.512-3.584 0.512z m83.456 0c1.536 0 2.56 0.512 4.096 0.512-1.536-0.512-2.56-0.512-4.096-0.512z" fill="#CFE07D" p-id="2846"></path><path d="M409.088 765.44c3.584-5.12 7.68-6.656 12.8-3.072l45.056 31.744 41.984 29.696h6.144l41.984-29.696 45.056-31.744c5.12-3.584 9.728-2.048 12.8 3.584 4.096-7.168 7.68-14.336 10.24-22.016l-2.048-1.024c-3.072-1.024-6.144-2.048-9.728-3.072-1.024-0.512-2.048-0.512-3.072-1.024-8.704-2.56-17.408-4.608-26.624-6.656-1.024 0-2.56-0.512-3.584-0.512-8.192-1.536-16.384-3.072-24.576-4.096-1.536 0-2.56-0.512-4.096-0.512-4.608-0.512-9.216-1.024-14.336-1.536H486.4c-4.608 0.512-9.216 1.024-14.336 1.536-1.024 0-2.56 0.512-3.584 0.512-8.192 1.024-16.896 2.56-25.088 4.096-1.024 0-2.048 0.512-2.56 0.512-9.216 2.048-17.92 4.096-27.136 6.656-0.512 0-1.024 0.512-2.048 0.512-3.584 1.024-7.68 2.56-11.264 3.584-0.512 0-1.024 0.512-1.536 0.512 2.56 7.68 6.144 15.36 10.24 22.016z" fill="#FEFEFE" p-id="2847"></path><path d="M602.112 762.368l-45.056 31.744-41.984 29.696-3.072 2.048 45.056 31.744 45.056 31.744c25.6 17.92 30.208-96.768 12.8-123.392-3.584-5.632-7.68-7.168-12.8-3.584z m-180.224 0c-5.12-3.584-9.216-2.048-12.8 3.072-17.408 26.112-12.8 141.824 12.8 123.392l45.056-31.744 45.056-31.744-3.072-2.048-41.984-29.696c0 0.512-45.056-31.232-45.056-31.232z" fill="#7EA701" p-id="2848"></path><path d="M472.064 386.56c49.664 87.552 216.576 145.408 280.576 105.472 4.608-80.896-31.744-145.92-82.432-188.928-18.432-15.872-39.424-29.184-61.952-39.424-30.208-13.824-61.44-20.48-89.6-19.968-2.56 0-5.12 0-7.68 0.512 9.216 29.184-7.68 88.064-38.912 142.336z" fill="#F7B970" p-id="2849"></path><path d="M472.064 386.56c31.232-54.784 47.616-113.152 39.424-142.848-2.56 0-5.12 0-7.68-0.512-36.864-0.512-78.848 11.264-116.736 34.304-1.024 0.512-2.048 1.024-2.56 1.536-2.56 1.536-4.608 3.072-7.168 4.608-0.512 0-0.512 0.512-1.024 0.512-61.952 41.984-110.592 113.664-105.472 206.848 0 0 0.512 0 0.512 0.512 76.288 48.64 154.624-23.552 200.704-104.96z" fill="#FBCE77" p-id="2850"></path></svg>