<?xml version="1.0" standalone="no"?><!DOCTYPE svg PUBLIC "-//W3C//DTD SVG 1.1//EN" "http://www.w3.org/Graphics/SVG/1.1/DTD/svg11.dtd"><svg t="1590759065891" class="icon" viewBox="0 0 1024 1024" version="1.1" xmlns="http://www.w3.org/2000/svg" p-id="3948" xmlns:xlink="http://www.w3.org/1999/xlink" width="32" height="32"><defs><style type="text/css"></style></defs><path d="M511.988546 512.009467m-511.988515 0.982948a511.989459 511.989459 0 1 0 1023.977031-1.965897 511.989459 511.989459 0 1 0-1023.977031 1.965897Z" fill="#6170BE" p-id="3949"></path><path d="M263.043018 729.032834a126.692294 126.692294 0 0 1-72.280865-0.602341A188.432199 188.432199 0 0 0 240.957198 682.652612z" fill="#6170BE" p-id="3950"></path><path d="M240.957198 682.652612c-2.610142-6.926916-4.818724-14.054613-6.826526-21.182309C447.861173 501.95045 598.044748 831.029165 748.629883 703.935311a274.968457 274.968457 0 0 1-485.787645 25.097523 126.692294 126.692294 0 0 1-72.080085-0.602341A186.926348 186.926348 0 0 0 240.957198 682.652612z" fill="#FFF3D5" p-id="3951"></path><path d="M653.058517 358.392621a275.370017 275.370017 0 0 0-424.85086 276.875869c224.171071-174.979927 357.489111 182.208013 520.422226 68.666821 28.310005-30.117027 94.667855-47.082952 94.667855-47.082952-8.432768-4.718334-29.313906-30.117027-70.975794-21.68426 55.31494-222.76561-100.992431-402.965821-100.99243-402.965821a84.026505 84.026505 0 0 0 80.312072-61.539125c-45.476711 24.194012-78.40466 4.718334-100.39009 32.727169-21.583869-23.190111-58.928983 3.714433-94.165905-6.726136 5.923015 27.808055 33.02834 39.352915 70.273063 42.866569 0 0-9.537059 32.92795-54.009868 54.311038a159.921413 159.921413 0 0 1-21.182309 8.332378c-5.019505 1.606241-10.039009 3.011703-15.861634 4.216384 0 0 53.809088 2.208582 116.552894 52.002066z" fill="#F8CF6C" p-id="3952"></path><path d="M639.706635 620.711927a22.68816 22.68816 0 0 0 11.344081 20.078018 22.38699 22.38699 0 0 0 22.68816 0 22.68816 22.68816 0 1 0-34.032241-20.078018z" fill="#6170BE" p-id="3953"></path><path d="M260.031315 731.341806a125.286832 125.286832 0 0 1-72.180475-0.602341 185.420496 185.420496 0 0 0 50.195045-45.677491z" fill="#F8CF6C" p-id="3954"></path></svg>